{
  "accessors": [
    {
      "bufferView": 2,
      "componentType": 5126,
      "count": 3036,
      "max": [
        5.4350266456604,
        5.4350266456604,
        1.4747607707977295
      ],
      "min": [
        -0.9999998211860657,
        -5.4350266456604,
        -1.4747607707977295
      ],
      "type": "VEC3"
    },
    {
      "bufferView": 2,
      "byteOffset": 36432,
      "componentType": 5126,
      "count": 3036,
      "max": [
        1.0,
        1.0,
        1.0
      ],
      "min": [
        -1.0,
        -1.0,
        -1.0
      ],
      "type": "VEC3"
    },
    {
      "bufferView": 3,
      "componentType": 5126,
      "count": 3036,
      "max": [
        1.0,
        1.0,
        1.0,
        1.0
      ],
      "min": [
        -1.0,
        -1.0,
        -1.0,
        1.0
      ],
      "type": "VEC4"
    },
    {
      "bufferView": 1,
      "componentType": 5126,
      "count": 3036,
      "max": [
        1.0,
        0.9999999403953552
      ],
      "min": [
        0.0,
        0.0
      ],
      "type": "VEC2"
    },
    {
      "bufferView": 0,
      "componentType": 5125,
      "count": 7128,
      "type": "SCALAR"
    },
    {
      "bufferView": 2,
      "byteOffset": 72864,
      "componentType": 5126,
      "count": 1302,
      "max": [
        4.062936782836914,
        18.33364486694336,
        18.333642959594727
      ],
      "min": [
        -4.062936782836914,
        -18.33365249633789,
        -18.33365821838379
      ],
      "type": "VEC3"
    },
    {
      "bufferView": 2,
      "byteOffset": 88488,
      "componentType": 5126,
      "count": 1302,
      "max": [
        1.0,
        0.8069720268249512,
        0.8069723844528198
      ],
      "min": [
        -0.9908374547958374,
        -0.806972086429596,
        -0.8069709539413452
      ],
      "type": "VEC3"
    },
    {
      "bufferView": 3,
      "byteOffset": 48576,
      "componentType": 5126,
      "count": 1302,
      "max": [
        0.5909544825553894,
        0.9894654750823975,
        0.9558029174804688,
        1.0
      ],
      "min": [
        -0.806970477104187,
        -0.9868422150611877,
        -0.5936716794967651,
        1.0
      ],
      "type": "VEC4"
    },
    {
      "bufferView": 1,
      "byteOffset": 24288,
      "componentType": 5126,
      "count": 1302,
      "max": [
        0.9999999403953552,
        1.0
      ],
      "min": [
        0.0,
        0.0
      ],
      "type": "VEC2"
    },
    {
      "bufferView": 0,
      "byteOffset": 28512,
      "componentType": 5125,
      "count": 5172,
      "type": "SCALAR"
    },
    {
      "bufferView": 2,
      "byteOffset": 104112,
      "componentType": 5126,
      "count": 10854,
      "max": [
        4.060616493225098,
        18.39971351623535,
        18.373952865600586
      ],
      "min": [
        -3.9432554244995117,
        -18.33365249633789,
        -18.33365821838379
      ],
      "type": "VEC3"
    },
    {
      "bufferView": 2,
      "byteOffset": 234360,
      "componentType": 5126,
      "count": 10854,
      "max": [
        1.0,
        1.0,
        1.0
      ],
      "min": [
        -1.0,
        -1.0,
        -1.0
      ],
      "type": "VEC3"
    },
    {
      "bufferView": 3,
      "byteOffset": 69408,
      "componentType": 5126,
      "count": 10854,
      "max": [
        1.0,
        0.9978610873222351,
        1.0,
        1.0
      ],
      "min": [
        -1.0,
        -0.9978610873222351,
        -1.0,
        1.0
      ],
      "type": "VEC4"
    },
    {
      "bufferView": 1,
      "byteOffset": 34704,
      "componentType": 5126,
      "count": 10854,
      "max": [
        0.9999999403953552,
        1.0
      ],
      "min": [
        0.0,
        0.0
      ],
      "type": "VEC2"
    },
    {
      "bufferView": 0,
      "byteOffset": 49200,
      "componentType": 5125,
      "count": 22974,
      "type": "SCALAR"
    }
  ],
  "asset": {
    "extras": {
      "author": "Grzybek (https://sketchfab.com/Kapuriada)",
      "license": "CC-BY-4.0 (http://creativecommons.org/licenses/by/4.0/)",
      "source": "https://sketchfab.com/3d-models/gravity-generator-space-station-part-6fe80c35f05d43d2a559ad767dec972e",
      "title": "Gravity Generator - Space Station Part"
    },
    "generator": "Sketchfab-12.68.0",
    "version": "2.0"
  },
  "bufferViews": [
    {
      "buffer": 0,
      "byteLength": 141096,
      "name": "floatBufferViews",
      "target": 34963
    },
    {
      "buffer": 0,
      "byteLength": 121536,
      "byteOffset": 141096,
      "byteStride": 8,
      "name": "floatBufferViews",
      "target": 34962
    },
    {
      "buffer": 0,
      "byteLength": 364608,
      "byteOffset": 262632,
      "byteStride": 12,
      "name": "floatBufferViews",
      "target": 34962
    },
    {
      "buffer": 0,
      "byteLength": 243072,
      "byteOffset": 627240,
      "byteStride": 16,
      "name": "floatBufferViews",
      "target": 34962
    }
  ],
  "buffers": [
    {
      "byteLength": 870312,
      "uri": "scene.bin"
    }
  ],
  "images": [
    {
      "uri": "textures/Material.003_baseColor.png"
    },
    {
      "uri": "textures/Material.003_metallicRoughness.png"
    },
    {
      "uri": "textures/Material.003_normal.png"
    },
    {
      "uri": "textures/Material.001_baseColor.png"
    },
    {
      "uri": "textures/Material.001_metallicRoughness.png"
    },
    {
      "uri": "textures/Material.001_normal.png"
    },
    {
      "uri": "textures/Material.002_baseColor.png"
    },
    {
      "uri": "textures/Material.002_metallicRoughness.png"
    },
    {
      "uri": "textures/Material.002_normal.png"
    }
  ],
  "materials": [
    {
      "doubleSided": true,
      "name": "Material.003",
      "normalTexture": {
        "index": 2
      },
      "pbrMetallicRoughness": {
        "baseColorTexture": {
          "index": 0
        },
        "metallicRoughnessTexture": {
          "index": 1
        }
      }
    },
    {
      "doubleSided": true,
      "name": "Material.001",
      "normalTexture": {
        "index": 5
      },
      "pbrMetallicRoughness": {
        "baseColorTexture": {
          "index": 3
        },
        "metallicRoughnessTexture": {
          "index": 4
        }
      }
    },
    {
      "doubleSided": true,
      "name": "Material.002",
      "normalTexture": {
        "index": 8
      },
      "pbrMetallicRoughness": {
        "baseColorTexture": {
          "index": 6
        },
        "metallicRoughnessTexture": {
          "index": 7
        }
      }
    }
  ],
  "meshes": [
    {
      "name": "Cylinder.003_Material.003_0",
      "primitives": [
        {
          "attributes": {
            "NORMAL": 1,
            "POSITION": 0,
            "TANGENT": 2,
            "TEXCOORD_0": 3
          },
          "indices": 4,
          "material": 0,
          "mode": 4
        }
      ]
    },
    {
      "name": "Cylinder_Material.001_0",
      "primitives": [
        {
          "attributes": {
            "NORMAL": 6,
            "POSITION": 5,
            "TANGENT": 7,
            "TEXCOORD_0": 8
          },
          "indices": 9,
          "material": 1,
          "mode": 4
        }
      ]
    },
    {
      "name": "Cylinder_Material.002_0",
      "primitives": [
        {
          "attributes": {
            "NORMAL": 11,
            "POSITION": 10,
            "TANGENT": 12,
            "TEXCOORD_0": 13
          },
          "indices": 14,
          "material": 2,
          "mode": 4
        }
      ]
    }
  ],
  "nodes": [
    {
      "children": [
        1
      ],
      "matrix": [
        1.0,
        0.0,
        0.0,
        0.0,
        0.0,
        2.220446049250313e-16,
        -1.0,
        0.0,
        0.0,
        1.0,
        2.220446049250313e-16,
        0.0,
        0.0,
        0.0,
        0.0,
        1.0
      ],
      "name": "Sketchfab_model"
    },
    {
      "children": [
        2
      ],
      "matrix": [
        1.0,
        0.0,
        0.0,
        0.0,
        0.0,
        0.0,
        1.0,
        0.0,
        0.0,
        -1.0,
        0.0,
        0.0,
        0.0,
        0.0,
        0.0,
        1.0
      ],
      "name": "c995ecf3fd5b4741831e3d254ef8e6ca.fbx"
    },
    {
      "children": [
        3,
        5
      ],
      "name": "RootNode"
    },
    {
      "children": [
        4
      ],
      "matrix": [
        2.038443286167535e-05,
        269.99999999999926,
        0.0,
        0.0,
        -2.038443287666336e-05,
        1.4988010832439613e-12,
        -269.99999999999926,
        0.0,
        -269.9999999999985,
        2.038443287666336e-05,
        2.038443286167535e-05,
        0.0,
        0.0,
        0.0,
        0.0,
        1.0
      ],
      "name": "Cylinder.003"
    },
    {
      "mesh": 0,
      "name": "Cylinder.003_Material.003_0"
    },
    {
      "children": [
        6,
        7
      ],
      "matrix": [
        100.0,
        0.0,
        0.0,
        0.0,
        0.0,
        -1.629206793918314e-05,
        -99.99999999999868,
        0.0,
        0.0,
        99.99999999999868,
        -1.629206793918314e-05,
        0.0,
        0.0,
        0.0,
        0.0,
        1.0
      ],
      "name": "Cylinder"
    },
    {
      "mesh": 1,
      "name": "Cylinder_Material.001_0"
    },
    {
      "mesh": 2,
      "name": "Cylinder_Material.002_0"
    }
  ],
  "samplers": [
    {
      "magFilter": 9729,
      "minFilter": 9987,
      "wrapS": 10497,
      "wrapT": 10497
    }
  ],
  "scene": 0,
  "scenes": [
    {
      "name": "Sketchfab_Scene",
      "nodes": [
        0
      ]
    }
  ],
  "textures": [
    {
      "sampler": 0,
      "source": 0
    },
    {
      "sampler": 0,
      "source": 1
    },
    {
      "sampler": 0,
      "source": 2
    },
    {
      "sampler": 0,
      "source": 3
    },
    {
      "sampler": 0,
      "source": 4
    },
    {
      "sampler": 0,
      "source": 5
    },
    {
      "sampler": 0,
      "source": 6
    },
    {
      "sampler": 0,
      "source": 7
    },
    {
      "sampler": 0,
      "source": 8
    }
  ]
}
