{
  "accessors": [
    {
      "bufferView": 2,
      "componentType": 5126,
      "count": 65534,
      "max": [
        4.11216926574707,
        3.75750994682312,
        1.0003999471664429
      ],
      "min": [
        -0.6744041442871094,
        -4.75033712387085,
        -0.19094699621200562
      ],
      "type": "VEC3"
    },
    {
      "bufferView": 2,
      "byteOffset": 786408,
      "componentType": 5126,
      "count": 65534,
      "max": [
        1.0,
        1.0,
        1.0
      ],
      "min": [
        -1.0,
        -1.0,
        -1.0
      ],
      "type": "VEC3"
    },
    {
      "bufferView": 1,
      "componentType": 5126,
      "count": 65534,
      "max": [
        0.9971525073051453,
        0.9973916411399841
      ],
      "min": [
        0.0027795941568911076,
        0.0025669282767921686
      ],
      "type": "VEC2"
    },
    {
      "bufferView": 0,
      "componentType": 5125,
      "count": 101334,
      "type": "SCALAR"
    },
    {
      "bufferView": 2,
      "byteOffset": 1572816,
      "componentType": 5126,
      "count": 65532,
      "max": [
        2.6142759323120117,
        3.7881479263305664,
        1.1824719905853271
      ],
      "min": [
        -0.6947464942932129,
        -4.799499988555908,
        -0.028596999123692513
      ],
      "type": "VEC3"
    },
    {
      "bufferView": 2,
      "byteOffset": 2359200,
      "componentType": 5126,
      "count": 65532,
      "max": [
        1.0,
        1.0,
        1.0
      ],
      "min": [
        -1.0,
        -1.0,
        -1.0
      ],
      "type": "VEC3"
    },
    {
      "bufferView": 1,
      "byteOffset": 524272,
      "componentType": 5126,
      "count": 65532,
      "max": [
        0.9946519732475281,
        0.9950333833694458
      ],
      "min": [
        0.0027795941568911076,
        0.003313784720376134
      ],
      "type": "VEC2"
    },
    {
      "bufferView": 0,
      "byteOffset": 405336,
      "componentType": 5125,
      "count": 100956,
      "type": "SCALAR"
    },
    {
      "bufferView": 2,
      "byteOffset": 3145584,
      "componentType": 5126,
      "count": 65532,
      "max": [
        2.8655004501342773,
        4.539872169494629,
        4.423593044281006
      ],
      "min": [
        -3.0286014080047607,
        -7.546076774597168,
        -6.994263172149658
      ],
      "type": "VEC3"
    },
    {
      "bufferView": 2,
      "byteOffset": 3931968,
      "componentType": 5126,
      "count": 65532,
      "max": [
        1.0,
        1.0,
        1.0
      ],
      "min": [
        -1.0,
        -1.0,
        -1.0
      ],
      "type": "VEC3"
    },
    {
      "bufferView": 1,
      "byteOffset": 1048528,
      "componentType": 5126,
      "count": 65532,
      "max": [
        0.9973856806755066,
        0.997101902961731
      ],
      "min": [
        0.0025669282767921686,
        0.0025669282767921686
      ],
      "type": "VEC2"
    },
    {
      "bufferView": 0,
      "byteOffset": 809160,
      "componentType": 5125,
      "count": 101172,
      "type": "SCALAR"
    },
    {
      "bufferView": 2,
      "byteOffset": 4718352,
      "componentType": 5126,
      "count": 65534,
      "max": [
        4.094119071960449,
        4.938457012176514,
        1.3966200351715088
      ],
      "min": [
        -3.22129225730896,
        -7.5315399169921875,
        -1.3802870512008667
      ],
      "type": "VEC3"
    },
    {
      "bufferView": 2,
      "byteOffset": 5504760,
      "componentType": 5126,
      "count": 65534,
      "max": [
        1.0,
        1.0,
        1.0
      ],
      "min": [
        -1.0,
        -1.0,
        -1.0
      ],
      "type": "VEC3"
    },
    {
      "bufferView": 1,
      "byteOffset": 1572784,
      "componentType": 5126,
      "count": 65534,
      "max": [
        0.9973828792572021,
        0.9964749217033386
      ],
      "min": [
        0.0025669282767921686,
        0.0025669282767921686
      ],
      "type": "VEC2"
    },
    {
      "bufferView": 0,
      "byteOffset": 1213848,
      "componentType": 5125,
      "count": 103542,
      "type": "SCALAR"
    },
    {
      "bufferView": 2,
      "byteOffset": 6291168,
      "componentType": 5126,
      "count": 65534,
      "max": [
        4.088957786560059,
        5.242194175720215,
        1.327684998512268
      ],
      "min": [
        -3.1979353427886963,
        -7.75023889541626,
        -1.230705976486206
      ],
      "type": "VEC3"
    },
    {
      "bufferView": 2,
      "byteOffset": 7077576,
      "componentType": 5126,
      "count": 65534,
      "max": [
        1.0,
        1.0,
        1.0
      ],
      "min": [
        -1.0,
        -1.0,
        -1.0
      ],
      "type": "VEC3"
    },
    {
      "bufferView": 1,
      "byteOffset": 2097056,
      "componentType": 5126,
      "count": 65534,
      "max": [
        0.9972022175788879,
        0.9974331259727478
      ],
      "min": [
        0.0025669282767921686,
        0.0025669282767921686
      ],
      "type": "VEC2"
    },
    {
      "bufferView": 0,
      "byteOffset": 1628016,
      "componentType": 5125,
      "count": 100884,
      "type": "SCALAR"
    },
    {
      "bufferView": 2,
      "byteOffset": 7863984,
      "componentType": 5126,
      "count": 65532,
      "max": [
        1.244593620300293,
        2.9946060180664063,
        1.1659029722213745
      ],
      "min": [
        -2.9986014366149902,
        -2.3722939491271973,
        -1.1113560199737549
      ],
      "type": "VEC3"
    },
    {
      "bufferView": 2,
      "byteOffset": 8650368,
      "componentType": 5126,
      "count": 65532,
      "max": [
        1.0,
        1.0,
        1.0
      ],
      "min": [
        -1.0,
        -1.0,
        -1.0
      ],
      "type": "VEC3"
    },
    {
      "bufferView": 1,
      "byteOffset": 2621328,
      "componentType": 5126,
      "count": 65532,
      "max": [
        0.9970126152038574,
        0.9961919784545898
      ],
      "min": [
        0.0027795941568911076,
        0.003313784720376134
      ],
      "type": "VEC2"
    },
    {
      "bufferView": 0,
      "byteOffset": 2031552,
      "componentType": 5125,
      "count": 99360,
      "type": "SCALAR"
    },
    {
      "bufferView": 2,
      "byteOffset": 9436752,
      "componentType": 5126,
      "count": 29405,
      "max": [
        2.5196104049682617,
        3.703687906265259,
        0.9555360078811646
      ],
      "min": [
        -0.6163043975830078,
        -4.692782878875732,
        -0.3386699855327606
      ],
      "type": "VEC3"
    },
    {
      "bufferView": 2,
      "byteOffset": 9789612,
      "componentType": 5126,
      "count": 29405,
      "max": [
        1.0,
        1.0,
        1.0
      ],
      "min": [
        -1.0,
        -1.0,
        -1.0
      ],
      "type": "VEC3"
    },
    {
      "bufferView": 1,
      "byteOffset": 3145584,
      "componentType": 5126,
      "count": 29405,
      "max": [
        0.995108962059021,
        0.9960510730743408
      ],
      "min": [
        0.0025669282767921686,
        0.003313784720376134
      ],
      "type": "VEC2"
    },
    {
      "bufferView": 0,
      "byteOffset": 2428992,
      "componentType": 5125,
      "count": 44493,
      "type": "SCALAR"
    }
  ],
  "asset": {
    "extras": {
      "author": "pikabobalex (https://sketchfab.com/pikabobalex)",
      "license": "CC-BY-4.0 (http://creativecommons.org/licenses/by/4.0/)",
      "source": "https://sketchfab.com/3d-models/captital-space-station-wip-fc3ff01adcb6421ba9060b1a484626c7",
      "title": "Captital Space Station WIP"
    },
    "generator": "Sketchfab-12.68.0",
    "version": "2.0"
  },
  "bufferViews": [
    {
      "buffer": 0,
      "byteLength": 2606964,
      "name": "floatBufferViews",
      "target": 34963
    },
    {
      "buffer": 0,
      "byteLength": 3380824,
      "byteOffset": 2606964,
      "byteStride": 8,
      "name": "floatBufferViews",
      "target": 34962
    },
    {
      "buffer": 0,
      "byteLength": 10142472,
      "byteOffset": 5987788,
      "byteStride": 12,
      "name": "floatBufferViews",
      "target": 34962
    }
  ],
  "buffers": [
    {
      "byteLength": 16130260,
      "uri": "scene.bin"
    }
  ],
  "materials": [
    {
      "name": "wire_000000000",
      "pbrMetallicRoughness": {
        "baseColorFactor": [
          0.7241664348743744,
          0.7241664348743744,
          0.7241664348743744,
          1.0
        ],
        "roughnessFactor": 0.5
      }
    }
  ],
  "meshes": [
    {
      "name": "__wire_000000000_0",
      "primitives": [
        {
          "attributes": {
            "NORMAL": 1,
            "POSITION": 0,
            "TEXCOORD_0": 2
          },
          "indices": 3,
          "material": 0,
          "mode": 4
        }
      ]
    },
    {
      "name": "__wire_000000000_0",
      "primitives": [
        {
          "attributes": {
            "NORMAL": 5,
            "POSITION": 4,
            "TEXCOORD_0": 6
          },
          "indices": 7,
          "material": 0,
          "mode": 4
        }
      ]
    },
    {
      "name": "__wire_000000000_0",
      "primitives": [
        {
          "attributes": {
            "NORMAL": 9,
            "POSITION": 8,
            "TEXCOORD_0": 10
          },
          "indices": 11,
          "material": 0,
          "mode": 4
        }
      ]
    },
    {
      "name": "__wire_000000000_0",
      "primitives": [
        {
          "attributes": {
            "NORMAL": 13,
            "POSITION": 12,
            "TEXCOORD_0": 14
          },
          "indices": 15,
          "material": 0,
          "mode": 4
        }
      ]
    },
    {
      "name": "__wire_000000000_0",
      "primitives": [
        {
          "attributes": {
            "NORMAL": 17,
            "POSITION": 16,
            "TEXCOORD_0": 18
          },
          "indices": 19,
          "material": 0,
          "mode": 4
        }
      ]
    },
    {
      "name": "__wire_000000000_0",
      "primitives": [
        {
          "attributes": {
            "NORMAL": 21,
            "POSITION": 20,
            "TEXCOORD_0": 22
          },
          "indices": 23,
          "material": 0,
          "mode": 4
        }
      ]
    },
    {
      "name": "__wire_000000000_0",
      "primitives": [
        {
          "attributes": {
            "NORMAL": 25,
            "POSITION": 24,
            "TEXCOORD_0": 26
          },
          "indices": 27,
          "material": 0,
          "mode": 4
        }
      ]
    }
  ],
  "nodes": [
    {
      "children": [
        1
      ],
      "matrix": [
        1.0,
        0.0,
        0.0,
        0.0,
        0.0,
        2.220446049250313e-16,
        -1.0,
        0.0,
        0.0,
        1.0,
        2.220446049250313e-16,
        0.0,
        0.0,
        0.0,
        0.0,
        1.0
      ],
      "name": "Sketchfab_model"
    },
    {
      "children": [
        2
      ],
      "matrix": [
        1.0,
        0.0,
        0.0,
        0.0,
        0.0,
        0.0,
        1.0,
        0.0,
        0.0,
        -1.0,
        0.0,
        0.0,
        0.0,
        0.0,
        0.0,
        1.0
      ],
      "name": "932876a338094fec8f2fea204661679b.fbx"
    },
    {
      "children": [
        3
      ],
      "name": "RootNode"
    },
    {
      "children": [
        4,
        5,
        6,
        7,
        8,
        9,
        10
      ],
      "matrix": [
        100.0,
        0.0,
        0.0,
        0.0,
        0.0,
        1.9470718870540082e-05,
        -99.99999999999811,
        0.0,
        0.0,
        99.99999999999811,
        1.9470718870540082e-05,
        0.0,
        0.0,
        0.0,
        0.0,
        1.0
      ],
      "name": "_"
    },
    {
      "mesh": 0,
      "name": "__wire_000000000_0"
    },
    {
      "mesh": 1,
      "name": "__wire_000000000_0"
    },
    {
      "mesh": 2,
      "name": "__wire_000000000_0"
    },
    {
      "mesh": 3,
      "name": "__wire_000000000_0"
    },
    {
      "mesh": 4,
      "name": "__wire_000000000_0"
    },
    {
      "mesh": 5,
      "name": "__wire_000000000_0"
    },
    {
      "mesh": 6,
      "name": "__wire_000000000_0"
    }
  ],
  "scene": 0,
  "scenes": [
    {
      "name": "Sketchfab_Scene",
      "nodes": [
        0
      ]
    }
  ]
}
